# xmcd
#
# Track frame offsets: 
#        150
#        12405
#        24463
#        36043
#        48232
#        59461
#        69689
#        79272
#        89440
#        99956
#        110851
#        122052
#        131700
#        141893
#        152440
#        162884
#        173505
#        184924
#        196848
#        205559
#        217147
#        229101
#        239966
#        250059
#
# Disc length: 3459 seconds
#
# Revision: 0
# Processed by: cddbd v1.5.2PL0 Copyright (c) Steve Scherf et al.
# Submitted via: ExactAudioCopy v1.3
#
DISCID=530d8118
DTITLE=Don Gibson - Oh Lonesome Me_Singles Collection 1956-62_CD1
DYEAR=2013
DGENRE=Country
TTITLE0=Run Boy
TTITLE1=I Must Forget You
TTITLE2=Sweet Dreams
TTITLE3=The Road Of Life Alone
TTITLE4=I Ain't Gonna Waste My Time
TTITLE5=Ah-Ha
TTITLE6=I Believed In You
TTITLE7=What A Fool I Was For You
TTITLE8=I'm Gonna Fool Everybody
TTITLE9=You're The Only One For Me
TTITLE10=It Happens Everytime 
TTITLE11=I Ain't A- Studyin' You Baby 
TTITLE12=I Love You Still
TTITLE13=I Can't Leave
TTITLE14=Everything Turns Out For The Best
TTITLE15=Sittin' Here Cryin'
TTITLE16=Oh Lonesome Me 
TTITLE17=I Can't Stop Loving You 
TTITLE18=Blue Blue Day
TTITLE19=Too Soon To Know
TTITLE20=Give Myself A Party 
TTITLE21=Look Who's Blue 
TTITLE22=Who Cares (For Me)
TTITLE23=A Stranger To Me
EXTD=
EXTT0=
EXTT1=
EXTT2=
EXTT3=
EXTT4=
EXTT5=
EXTT6=
EXTT7=
EXTT8=
EXTT9=
EXTT10=
EXTT11=
EXTT12=
EXTT13=
EXTT14=
EXTT15=
EXTT16=
EXTT17=
EXTT18=
EXTT19=
EXTT20=
EXTT21=
EXTT22=
EXTT23=
PLAYORDER=
